<?xml version="1.0" encoding="UTF-8"?>
<svg id="Layer_2" data-name="Layer 2" xmlns="http://www.w3.org/2000/svg" viewBox="0 0 464 540">
  <defs>
    <style>
      .cls-1 {
        fill: #3476bc;
      }

      .cls-1, .cls-2, .cls-3, .cls-4, .cls-5, .cls-6, .cls-7, .cls-8, .cls-9, .cls-10, .cls-11 {
        stroke-width: 0px;
      }

      .cls-2 {
        fill: #f1d4b1;
      }

      .cls-3 {
        fill: #f8c174;
      }

      .cls-4 {
        fill: #b39a88;
      }

      .cls-5 {
        fill: #d6a872;
      }

      .cls-6 {
        fill: #6981ab;
      }

      .cls-7 {
        fill: #f4ca92;
      }

      .cls-8 {
        fill: #ecddd0;
      }

      .cls-9 {
        fill: #fdb952;
      }

      .cls-10 {
        fill: #e7e7f4;
      }

      .cls-11 {
        fill: #8f8d9b;
      }
    </style>
  </defs>
  <g id="Layer_1-2" data-name="Layer 1">
    <g>
      <path class="cls-10" d="M0,0c16.7,43.37,92.65,226.25,285,304,68.37,27.64,131.87,34.08,179,34v202H0V0Z"/>
      <path class="cls-8" d="M0,40c20.29,42.09,92.79,196.95,262,268.6,79.43,33.64,152.61,40.29,202,39.8v191.6H0V40Z"/>
      <path class="cls-2" d="M0,80c23.88,40.81,92.53,168.69,239,233.2,90.44,39.83,173.34,46.5,225,45.6v181.2H0V80Z"/>
      <path class="cls-7" d="M0,120c27.47,39.53,91.98,141.09,216,197.8,101.32,46.33,194.07,52.7,248,51.4v170.8H0V120Z"/>
      <path class="cls-3" d="M0,160c31.06,38.24,91.22,113.96,193,162.4,111.97,53.29,214.81,58.91,271,57.2v160.4H0V160Z"/>
      <path class="cls-9" d="M0,200c34.65,36.96,90.27,87.15,170,127,122.21,61.08,235.54,65.12,294,63v150H0V200Z"/>
      <path class="cls-5" d="M0,238c37.08,35.05,96.49,81.74,179.2,118,119.02,52.18,226.91,54.73,284.8,51.2v132.8H0V238Z"/>
      <path class="cls-4" d="M0,276c39.52,33.15,102.56,76.56,188.4,109,115.57,43.68,218.28,44.33,275.6,39.4v115.6H0v-264Z"/>
      <path class="cls-11" d="M0,314c41.96,31.24,108.51,71.66,197.6,100,111.94,35.6,209.64,33.94,266.4,27.6v98.4H0v-226Z"/>
      <path class="cls-6" d="M0,352c44.4,29.33,114.35,67.12,206.8,91,108.2,27.95,201.01,23.54,257.2,15.8v81.2H0v-188Z"/>
      <path class="cls-1" d="M0,390c46.83,27.42,120.15,63,216,82,104.42,20.7,192.38,13.15,248,4v64H0v-150Z"/>
    </g>
  </g>
</svg>