<?xml version="1.0" encoding="UTF-8"?>
<svg id="Layer_2" data-name="Layer 2" xmlns="http://www.w3.org/2000/svg" viewBox="0 0 193.06 177.14">
  <defs>
    <style>
      .cls-1 {
        fill: #FFF;
        stroke-width: 0px;
      }
    </style>
  </defs>
  <g id="Layer_5" data-name="Layer 5">
    <g>
      <path class="cls-1" d="M28.44,177.14C1.71,177.14,0,157.91,0,157.91c4.83,3,10.76,4.69,18.14,4.69,27.98,0,33.33-22.53,33.33-48.06V19.92H1.34l7.95-9.76C14.5,3.77,22.4.07,30.73.12h47.77s-.07,111.67-.07,111.67c0,45-20.16,65.35-50,65.35Z"/>
      <path class="cls-1" d="M154.2,177.14h-53.71V0c14.9,0,26.97,11.88,26.97,26.53v130.41h65.59,0c-8.9,12.4-23.42,20.2-38.85,20.2Z"/>
    </g>
  </g>
</svg>