<?xml version="1.0" encoding="UTF-8"?>
<svg id="Layer_2" data-name="Layer 2" xmlns="http://www.w3.org/2000/svg" viewBox="0 0 132 132">
  <defs>
    <style>
      .cls-1 {
        fill: #000;
        fill-rule: evenodd;
        stroke-width: 0px;
      }
    </style>
  </defs>
  <g id="Layer_1-2" data-name="Layer 1">
    <path class="cls-1" d="M0,0v132h132V0H0ZM80.37,82.07c2.28,1.98,4.25,5.74,4.25,11.68,0,4.44-.03,10.96-.06,16.45-.02,2.52-2.07,4.56-4.6,4.56h-21.88c-2.53,0-4.58-2.04-4.59-4.57-.02-4.07-.05-8.38-.05-10.8-17.4,3.76-21.02-7.51-21.02-7.51-2.8-7.31-6.94-9.18-6.94-9.18-5.69-3.86.42-3.86.42-3.86,6.31.41,9.63,6.46,9.63,6.46,5.59,9.6,14.6,6.89,18.22,5.22.52-4.07,2.18-6.89,3.94-8.45-13.88-1.46-28.48-6.89-28.48-31.09,0-6.89,2.48-12.52,6.42-16.9-.62-1.57-2.8-8.04.62-16.7,0,0,5.28-1.67,17.19,6.47,5.1-1.38,10.36-2.08,15.64-2.08s10.67.73,15.64,2.08c11.91-8.14,17.19-6.47,17.19-6.47,3.42,8.66,1.24,15.13.62,16.7,4.04,4.38,6.42,10.01,6.42,16.9,0,24.2-14.6,29.52-28.58,31.09Z"/>
  </g>
</svg>