<?xml version="1.0" encoding="UTF-8"?>
<svg id="Layer_2" data-name="Layer 2" xmlns="http://www.w3.org/2000/svg" viewBox="0 0 792 518.2">
  <defs>
    <style>
      .cls-1 {
        fill: #3476bc;
      }

      .cls-1, .cls-2, .cls-3, .cls-4, .cls-5, .cls-6, .cls-7, .cls-8, .cls-9, .cls-10 {
        stroke-width: 0px;
      }

      .cls-2 {
        fill: #f1d4b1;
      }

      .cls-3 {
        fill: #f8c174;
      }

      .cls-4 {
        fill: #b39a88;
      }

      .cls-5 {
        fill: #d6a872;
      }

      .cls-6 {
        fill: #6981ab;
      }

      .cls-7 {
        fill: #f4ca92;
      }

      .cls-8 {
        fill: #ecddd0;
      }

      .cls-9 {
        fill: #fdb952;
      }

      .cls-10 {
        fill: #8f8d9b;
      }
    </style>
  </defs>
  <g id="Layer_1-2" data-name="Layer 1">
    <path class="cls-8" d="M0,308C67.45,208.82,163.86,99.33,268.8,107.6c112.25,8.74,152.32,145.13,256.2,149.6,62.4,2.68,151.84-41.81,267-257.2v518.2H0v-210.2Z"/>
    <path class="cls-2" d="M0,317.8c64.32-91.39,156.8-192.25,260.6-186.8,111.98,5.73,154.65,129.89,260.4,134.2,63.94,2.6,154.95-38.07,271-234.4v487.4H0v-200.4Z"/>
    <path class="cls-7" d="M0,327.6c61.19-83.59,149.73-175.84,252.4-173.2,111.71,2.71,156.97,114.65,264.6,118.8,65.47,2.52,158.06-34.33,275-211.6v456.6H0v-190.6Z"/>
    <path class="cls-3" d="M0,337.4c58.06-75.8,142.67-159.42,244.2-159.6,111.44-.3,159.29,99.42,268.8,103.4,67.01,2.43,161.17-30.59,279-188.8v425.8H0v-180.8Z"/>
    <path class="cls-9" d="M0,347.2c54.94-68.01,135.6-143,236-146,111.17-3.32,161.61,84.18,273,88,68.55,2.35,164.28-26.84,283-166v395H0v-171Z"/>
    <path class="cls-5" d="M0,360.8c51.47-60.23,128.89-128.12,226.6-134.8,116.86-7.99,172.62,70.33,291.2,72,65.96.93,159.36-26.77,274.2-150.8v371H0v-157.4Z"/>
    <path class="cls-4" d="M0,374.4c48.01-52.46,122.18-113.55,217.2-123.6,122.57-12.97,183.56,59.78,309.4,56,63.37-1.9,154.44-26.69,265.4-135.6v347H0v-143.8Z"/>
    <path class="cls-10" d="M0,388c44.55-44.68,115.46-99.25,207.8-112.4,128.26-18.27,194.52,48.12,327.6,40,60.77-3.71,149.51-26.62,256.6-120.4v323H0v-130.2Z"/>
    <path class="cls-6" d="M0,401.6c41.08-36.91,108.69-85.17,198.4-101.2,133.88-23.92,205.52,36.87,345.8,24,58.19-5.34,144.59-26.54,247.8-105.2v299H0v-116.6Z"/>
    <path class="cls-1" d="M0,415.2c37.62-29.13,101.86-71.29,189-90,139.4-29.93,216.59,26.09,364,8,55.63-6.83,139.67-26.47,239-90v275H0v-103Z"/>
  </g>
</svg>